<?xml version="1.0" standalone="no"?><!DOCTYPE svg PUBLIC "-//W3C//DTD SVG 1.1//EN" "http://www.w3.org/Graphics/SVG/1.1/DTD/svg11.dtd"><svg t="1634800680835" class="icon" viewBox="0 0 1024 1024" version="1.1" xmlns="http://www.w3.org/2000/svg" p-id="5010" xmlns:xlink="http://www.w3.org/1999/xlink" width="200" height="200"><defs><style type="text/css"></style></defs><path d="M737.28 542.72a10.24 10.24 0 0 1 1.19808 20.40832L737.28 563.2H522.24v218.81856l64.03072-72.01792a10.24 10.24 0 0 1 16.09728 12.5952l-0.79872 1.00352-81.92 92.16c-0.32768 0.37888-0.67584 0.7168-1.04448 1.024l-0.9728 0.72704-1.08544 0.62464-0.74752 0.33792-0.99328 0.33792-1.14688 0.256a10.3424 10.3424 0 0 1-3.31776 0l-0.7168-0.14336-0.768-0.21504-1.18784-0.47104-0.7168-0.36864-0.93184-0.59392-0.9216-0.74752-0.74752-0.768-81.92-92.16a10.24 10.24 0 0 1 14.3872-14.51008l0.9216 0.91136L501.76 782.01856V563.2H286.72a10.24 10.24 0 0 1-1.19808-20.40832L286.72 542.72h450.56z m-450.56-61.44a10.24 10.24 0 0 1-1.19808-20.40832L286.72 460.8h215.04V241.9712l-64.03072 72.02816a10.24 10.24 0 0 1-13.43488 1.6384l-1.024-0.78848a10.24 10.24 0 0 1-1.6384-13.43488l0.79872-1.024 81.92-92.16c0.32768-0.36864 0.67584-0.70656 1.04448-1.024l0.9728-0.7168 1.08544-0.62464 0.74752-0.33792 0.99328-0.33792 1.14688-0.256 0.82944-0.1024L512 204.8l0.60416 0.02048 1.05472 0.11264 0.7168 0.14336 0.768 0.21504 1.18784 0.47104 0.7168 0.36864 0.93184 0.59392 0.9216 0.74752 0.74752 0.768 81.92 92.16a10.24 10.24 0 0 1-14.3872 14.51008l-0.9216-0.91136L522.24 241.9712V460.8h215.04a10.24 10.24 0 0 1 1.19808 20.40832L737.28 481.28H286.72z" p-id="5011" fill="#409EFF"></path></svg>