<?xml version="1.0" standalone="no"?><!DOCTYPE svg PUBLIC "-//W3C//DTD SVG 1.1//EN" "http://www.w3.org/Graphics/SVG/1.1/DTD/svg11.dtd"><svg t="1634693384146" class="icon" viewBox="0 0 1024 1024" version="1.1" xmlns="http://www.w3.org/2000/svg" p-id="25182" xmlns:xlink="http://www.w3.org/1999/xlink" width="200" height="200"><defs><style type="text/css"></style></defs><path d="M0 0h1024v1024H0z" fill="#515A6E" opacity=".01" p-id="25183"></path><path d="M204.8 34.133333a102.4 102.4 0 0 0-102.4 102.4v721.749334c0 71.0656 70.621867 120.490667 137.386667 96.221866l237.226666-86.254933a102.365867 102.365867 0 0 1 69.973334 0l237.226666 86.254933c66.7648 24.302933 137.386667-25.156267 137.386667-96.256V136.533333a102.4 102.4 0 0 0-102.4-102.4H204.8zM170.666667 136.533333a34.133333 34.133333 0 0 1 34.133333-34.133333h614.4a34.133333 34.133333 0 0 1 34.133333 34.133333v721.749334a34.133333 34.133333 0 0 1-45.806933 32.085333l-237.226667-86.289067a170.666667 170.666667 0 0 0-116.6336 0l-237.226666 86.254934A34.133333 34.133333 0 0 1 170.666667 858.248533V136.533333z m375.466666 102.4a34.133333 34.133333 0 0 0-49.390933-30.5152l-68.266667 34.133334a34.133333 34.133333 0 1 0 30.5152 61.0304L477.866667 294.161067V614.4h-34.133334a34.133333 34.133333 0 1 0 0 68.266667h136.533334a34.133333 34.133333 0 1 0 0-68.266667h-34.133334V238.933333z" fill="#515A6E" p-id="25184"></path></svg>
