<?xml version="1.0" standalone="no"?><!DOCTYPE svg PUBLIC "-//W3C//DTD SVG 1.1//EN" "http://www.w3.org/Graphics/SVG/1.1/DTD/svg11.dtd"><svg t="1634646959390" class="icon" viewBox="0 0 1024 1024" version="1.1" xmlns="http://www.w3.org/2000/svg" p-id="12179" xmlns:xlink="http://www.w3.org/1999/xlink" width="200" height="200"><defs><style type="text/css"></style></defs><path d="M511.7 64.3C264.5 64.3 64 264.7 64 511.9s200.4 447.7 447.7 447.7 447.7-200.4 447.7-447.7S758.9 64.3 511.7 64.3z m274.1 721.8c-35.6 35.6-77.1 63.6-123.2 83.1-47.8 20.2-98.5 30.4-150.9 30.4s-103.1-10.2-150.9-30.4c-46.2-19.5-87.6-47.5-123.2-83.1C202 750.4 174 709 154.5 662.8c-20.2-47.8-30.4-98.5-30.4-150.9s10.2-103.1 30.4-150.9c19.5-46.2 47.5-87.6 83.1-123.2s77.1-63.6 123.2-83.1c47.8-20.2 98.5-30.4 150.9-30.4s103.1 10.2 150.9 30.4c46.2 19.5 87.6 47.5 123.2 83.1 35.6 35.6 63.6 77.1 83.1 123.2 20.2 47.8 30.4 98.5 30.4 150.9S889.1 615 868.9 662.8c-19.5 46.2-47.5 87.6-83.1 123.3z" p-id="12180" fill="#409EEF"></path><path d="M551.3 343.4c-12.1-11.3-31.1-10.7-42.4 1.4-11.3 12.1-10.7 31.1 1.4 42.4l116.6 109.1H332.2c-16.6 0-30 13.4-30 30s13.4 30 30 30h293l-120.4 112c-6.4 5.9-9.6 14-9.6 22 0 7.3 2.6 14.6 8 20.4 11.3 12.1 30.3 12.8 42.4 1.5l153.1-142.3c12.2-11.4 19.3-27.5 19.3-44.2v-0.1c0-16.7-7-32.8-19.2-44.2l-147.5-138z" p-id="12181" fill="#409EEF"></path></svg>