<?xml version="1.0" standalone="no"?><!DOCTYPE svg PUBLIC "-//W3C//DTD SVG 1.1//EN" "http://www.w3.org/Graphics/SVG/1.1/DTD/svg11.dtd"><svg t="1634692981789" class="icon" viewBox="0 0 1024 1024" version="1.1" xmlns="http://www.w3.org/2000/svg" p-id="21507" xmlns:xlink="http://www.w3.org/1999/xlink" width="200" height="200"><defs><style type="text/css"></style></defs><path d="M101.232612 895.340735c-19.509333 0-35.941584-16.433274-35.941583-36.439934 0-19.772322 16.433274-36.467563 35.941583-36.467563h38.255279c19.509333 0 36.204573 16.695241 36.204574 36.467563 0 20.008706-16.695241 36.439934-36.204574 36.439934h-38.255279z m213.027791-694.77272c-19.534915 0-35.967166-16.200984-35.967166-35.967166 0-20.008706 16.433274-35.941584 35.967166-35.941584H922.269038c20.007683 0 36.440957 15.932878 36.440957 35.941584 0 19.767206-16.433274 35.967166-36.440957 35.967166H314.260403z m-213.027791 0c-19.509333 0-35.941584-16.200984-35.941583-35.967166 0-20.008706 16.433274-35.941584 35.941583-35.941584h38.255279c19.509333 0 36.204573 15.932878 36.204574 35.941584 0 19.767206-16.695241 35.967166-36.204574 35.967166h-38.255279z m213.027791 231.581356c-19.534915 0-35.967166-16.433274-35.967166-36.204574 0-20.008706 16.433274-36.208667 35.967166-36.208666H922.269038c20.007683 0 36.440957 16.200984 36.440957 36.208666 0 19.772322-16.433274 36.204573-36.440957 36.204574H314.260403z m-213.027791 0c-19.509333 0-35.941584-16.433274-35.941583-36.204574 0-20.008706 16.433274-36.208667 35.941583-36.208666h38.255279c19.509333 0 36.204573 16.200984 36.204574 36.208666 0 19.772322-16.695241 36.204573-36.204574 36.204574h-38.255279z m213.027791 231.608985c-19.534915 0-35.967166-16.170285-35.967166-35.941584 0-20.034289 16.433274-36.467563 35.967166-36.467563H922.269038c20.007683 0 36.440957 16.433274 36.440957 36.467563 0 19.772322-16.433274 35.941584-36.440957 35.941584H314.260403z m-213.027791 0c-19.509333 0-35.941584-16.170285-35.941583-35.941584 0-20.034289 16.433274-36.467563 35.941583-36.467563h38.255279c19.509333 0 36.204573 16.433274 36.204574 36.467563 0 19.772322-16.695241 35.941584-36.204574 35.941584h-38.255279z m213.027791 231.582379c-19.534915 0-35.967166-16.433274-35.967166-36.439934 0-19.772322 16.433274-36.467563 35.967166-36.467563H922.269038c20.007683 0 36.440957 16.695241 36.440957 36.467563 0 20.008706-16.433274 36.439934-36.440957 36.439934H314.260403z" fill="#515A6E" p-id="21508"></path></svg>
