<?xml version="1.0" standalone="no"?><!DOCTYPE svg PUBLIC "-//W3C//DTD SVG 1.1//EN" "http://www.w3.org/Graphics/SVG/1.1/DTD/svg11.dtd"><svg t="1634653296358" class="icon" viewBox="0 0 1024 1024" version="1.1" xmlns="http://www.w3.org/2000/svg" p-id="15583" xmlns:xlink="http://www.w3.org/1999/xlink" width="200" height="200"><defs><style type="text/css"></style></defs><path d="M479.0272 580.7104h137.1136c12.1856 0 22.016-9.8304 22.016-24.576 0-12.288-9.8304-24.576-22.016-24.576H501.0432V327.168c0-12.288-9.8304-24.576-22.016-24.576s-22.016 9.8304-22.016 24.576V556.032c-2.4576 14.848 7.2704 24.6784 22.016 24.6784z m354.816 256c0 2.4576-2.4576 4.9152-4.9152 4.9152h-220.16c-2.4576 0-4.9152-2.4576-4.9152-4.9152v-31.9488c0-2.4576 2.4576-4.9152 4.9152-4.9152h220.2624c2.4576 0 4.9152 2.4576 4.9152 4.9152v31.9488zM716.3904 723.456h7.3728l34.304 39.424h-73.4208l31.744-39.424z m-31.744-93.4912c0-19.6608 14.6432-36.864 34.304-36.864 19.5584 0 34.304 17.2032 34.304 36.864s-14.7456 36.864-34.304 36.864c-19.6608 0-34.304-17.2032-34.304-36.864z m156.5696 135.3728H806.912l-66.048-71.3728c26.9312-9.8304 46.4896-36.864 46.4896-66.4576 0-39.424-31.8464-71.3728-68.5056-71.3728-39.1168 0-68.5056 31.9488-68.5056 71.3728 0 32.0512 19.5584 56.6272 46.4896 66.4576L630.784 765.3376h-34.304c-17.1008 0-31.8464 14.7456-31.8464 31.9488v51.712c0 17.2032 14.6432 32.0512 31.8464 32.0512h244.736c17.1008 0 31.8464-14.7456 31.8464-32.0512v-51.712c-2.4576-17.2032-14.7456-31.9488-31.8464-31.9488zM875.52 487.2192c-14.6432-189.5424-171.3152-342.1184-362.1888-342.1184-198.2464 0-362.1888 164.864-362.1888 369.152 0 196.9152 141.9264 354.4064 332.8 361.7792h17.1008c12.1856 0 22.016-9.8304 19.5584-22.1184 0-12.288-9.8304-22.1184-22.016-22.1184H486.4c-159.1296-12.288-286.3104-150.1184-286.3104-317.5424 0-177.2544 139.4688-320 313.2416-320 166.4 0 301.056 130.4576 313.2416 297.7792v29.4912c0 14.7456 9.8304 27.0336 24.4736 27.0336 12.1856 0 22.016-9.8304 24.4736-22.1184v-39.2192z" p-id="15584" fill="#515A6E"></path><path d="M841.216 886.1696h-244.736c-20.0704 0-36.9664-16.9984-36.9664-37.1712v-51.712c0-20.1728 16.896-37.1712 36.9664-37.1712h32.0512l59.5968-64.3072c-26.624-12.5952-42.9056-38.1952-42.9056-68.4032 0-42.9056 32.3584-76.4928 73.728-76.4928 39.936 0 73.728 35.0208 73.728 76.4928 0 28.672-17.3056 55.808-42.9056 68.3008l59.5968 64.4096h32.0512c18.432 0 33.8944 15.36 36.9664 36.4544l0.1024 0.7168v51.712c-0.3072 20.0704-17.2032 37.1712-37.2736 37.1712z m-244.736-115.712c-14.2336 0-26.624 12.4928-26.624 26.8288v51.712c0 14.336 12.4928 26.8288 26.624 26.8288h244.736c14.2336 0 26.624-12.5952 26.624-26.8288V797.696c-2.048-13.2096-11.1616-27.2384-26.624-27.2384h-36.5568l-72.9088-78.7456 7.2704-2.6624c25.3952-9.3184 43.1104-34.6112 43.1104-61.6448 0-35.9424-28.9792-66.2528-63.3856-66.2528-35.5328 0-63.3856 29.0816-63.3856 66.2528 0 28.2624 16.4864 51.9168 43.1104 61.6448l7.2704 2.6624-72.9088 78.7456h-36.352z m-95.4368 110.7968h-17.3056c-93.3888-3.584-179.2-43.2128-241.5616-111.5136-62.0544-67.8912-96.1536-158.5152-96.1536-255.488 0-50.5856 9.8304-99.6352 29.0816-145.8176 18.6368-44.544 45.2608-84.5824 79.1552-118.9888 33.792-34.304 73.1136-61.3376 116.8384-80.1792 45.1584-19.456 93.0816-29.3888 142.2336-29.3888 93.0816 0 182.1696 36.0448 250.7776 101.376C832.1024 306.0736 873.472 393.216 880.7424 486.7072v40.2432l-0.1024 0.512c-3.072 15.2576-15.4624 26.3168-29.4912 26.3168-16.896 0-29.5936-13.824-29.5936-32.256v-29.3888c-12.288-167.0144-144.6912-292.864-308.1216-292.864-169.8816 0-308.1216 141.2096-308.1216 314.7776 0 162.9184 123.5968 300.032 281.3952 312.32h12.0832c14.848 0 26.9312 11.9808 27.136 26.8288 1.2288 6.8608-0.512 13.4144-4.8128 18.7392-4.9152 5.9392-12.1856 9.3184-20.0704 9.3184z m-16.9984-10.3424h16.9984c4.8128 0 9.216-1.9456 11.9808-5.3248 1.7408-2.048 3.584-5.632 2.56-10.6496l-0.1024-0.512v-0.512c0-9.5232-7.3728-16.9984-16.896-16.9984h-12.5952C322.7648 824.32 194.8672 682.5984 194.8672 514.2528c0-87.04 32.9728-168.7552 92.9792-229.9904 60.0064-61.3376 140.0832-95.0272 225.4848-95.0272 81.5104 0 158.9248 31.1296 218.0096 87.552 58.6752 56.1152 94.3104 132.5056 100.352 215.04v29.9008c0 10.8544 6.656 21.9136 19.3536 21.9136 9.0112 0 17.1008-7.3728 19.3536-17.5104V487.424c-14.7456-189.0304-171.52-337.2032-357.0688-337.2032-196.9152 0-357.0688 163.328-357.0688 364.032 0 196.096 140.9024 349.3888 327.7824 356.6592z m344.9856-24.1664H608.768c-5.2224 0-10.0352-4.8128-10.0352-10.0352v-31.9488c0-5.3248 4.8128-10.1376 10.0352-10.1376h220.2624c5.2224 0 10.0352 4.8128 10.0352 10.1376v31.9488c0 5.2224-4.8128 10.0352-10.0352 10.0352z m-219.9552-10.3424h219.648V804.864l-0.1024-0.1024H609.0752l-0.1024 0.1024 0.1024 31.5392c-0.1024 0-0.1024 0 0 0zM769.3312 768H673.792l40.1408-49.664h12.1856l43.2128 49.664z m-73.9328-10.3424h51.3024l-25.2928-29.0816H718.848l-23.4496 29.0816z m23.4496-85.7088c-21.7088 0-39.424-18.8416-39.424-42.0864 0-23.2448 17.7152-42.0864 39.424-42.0864s39.424 18.8416 39.424 42.0864c0 23.2448-17.7152 42.0864-39.424 42.0864z m0-73.728c-16.0768 0-29.0816 14.2336-29.0816 31.744s13.1072 31.744 29.0816 31.744c16.0768 0 29.0816-14.2336 29.0816-31.744s-13.0048-31.744-29.0816-31.744z m-102.8096-12.3904H473.9072v-0.4096c-6.8608-1.024-12.6976-3.9936-16.6912-8.8064-4.608-5.5296-6.5536-12.9024-5.3248-20.992V327.168c0-16.9984 11.6736-29.7984 27.136-29.7984 14.4384 0 27.136 13.9264 27.136 29.7984V526.336h109.8752c14.4384 0 27.136 13.9264 27.136 29.7984 0.1024 16.896-11.5712 29.696-27.136 29.696z m-131.8912-10.24h131.8912c9.728 0 16.896-8.192 16.896-19.456 0-9.216-7.168-19.456-16.896-19.456H495.9232V327.168c0-9.216-7.168-19.456-16.896-19.456-9.9328 0-16.896 7.9872-16.896 19.456v229.376l-0.1024 0.4096c-0.9216 5.3248 0.1024 9.8304 2.9696 13.1072 2.9696 3.584 7.9872 5.5296 14.0288 5.5296h5.12z" p-id="15585" fill="#515A6E"></path></svg>
