<?xml version="1.0" standalone="no"?><!DOCTYPE svg PUBLIC "-//W3C//DTD SVG 1.1//EN" "http://www.w3.org/Graphics/SVG/1.1/DTD/svg11.dtd"><svg t="1634695331574" class="icon" viewBox="0 0 1061 1024" version="1.1" xmlns="http://www.w3.org/2000/svg" p-id="27919" xmlns:xlink="http://www.w3.org/1999/xlink" width="207.2265625" height="200"><defs><style type="text/css"></style></defs><path d="M884.363636 546.909091c0-204.8-167.563636-372.363636-372.363636-372.363636s-372.363636 167.563636-372.363636 372.363636c0 107.054545 46.545455 204.8 121.018181 272.290909l-58.181818 58.181818c-9.309091 9.309091-9.309091 23.272727 0 32.581818 4.654545 4.654545 11.636364 6.981818 16.290909 6.981819s11.636364-2.327273 16.290909-6.981819l62.836364-62.836363c60.509091 44.218182 134.981818 69.818182 216.436364 69.818182 81.454545 0 155.927273-25.6 216.436363-69.818182l62.836364 62.836363c4.654545 4.654545 11.636364 6.981818 16.290909 6.981819s11.636364-2.327273 16.290909-6.981819c9.309091-9.309091 9.309091-23.272727 0-32.581818L768 819.2c69.818182-67.490909 116.363636-165.236364 116.363636-272.290909z m-698.181818 0c0-179.2 146.618182-325.818182 325.818182-325.818182s325.818182 146.618182 325.818182 325.818182-146.618182 325.818182-325.818182 325.818182-325.818182-146.618182-325.818182-325.818182z" fill="#515A6E" p-id="27920"></path><path d="M700.509091 523.636364H535.272727v-211.781819c0-13.963636-9.309091-23.272727-23.272727-23.272727s-23.272727 9.309091-23.272727 23.272727v235.054546c0 13.963636 9.309091 23.272727 23.272727 23.272727h188.509091c13.963636 0 23.272727-9.309091 23.272727-23.272727s-9.309091-23.272727-23.272727-23.272727zM139.636364 358.4c-32.581818-32.581818-32.581818-83.781818 0-116.363636l67.490909-67.490909c32.581818-32.581818 83.781818-32.581818 116.363636 0 9.309091 9.309091 23.272727 9.309091 32.581818 0s9.309091-23.272727 0-32.581819c-51.2-51.2-132.654545-51.2-183.854545 0L107.054545 209.454545c-51.2 51.2-51.2 132.654545 0 183.854546 4.654545 4.654545 11.636364 6.981818 16.29091 6.981818s11.636364-4.654545 16.290909-9.309091c9.309091-6.981818 9.309091-23.272727 0-32.581818zM916.945455 209.454545l-67.49091-67.490909c-51.2-51.2-132.654545-51.2-183.854545 0-9.309091 9.309091-9.309091 23.272727 0 32.581819s23.272727 9.309091 32.581818 0c32.581818-32.581818 83.781818-32.581818 116.363637 0l67.490909 67.490909c16.290909 16.290909 23.272727 37.236364 23.272727 58.181818 0 23.272727-9.309091 41.890909-23.272727 58.181818-9.309091 9.309091-9.309091 23.272727 0 32.581818 4.654545 4.654545 11.636364 6.981818 16.290909 6.981818s11.636364-2.327273 16.290909-6.981818c23.272727-23.272727 37.236364-55.854545 37.236363-90.763636 2.327273-34.909091-11.636364-67.490909-34.90909-90.763637z" fill="#515A6E" p-id="27921"></path></svg>
