<?xml version="1.0" standalone="no"?><!DOCTYPE svg PUBLIC "-//W3C//DTD SVG 1.1//EN" "http://www.w3.org/Graphics/SVG/1.1/DTD/svg11.dtd"><svg t="1634386665594" class="icon" viewBox="0 0 1024 1024" version="1.1" xmlns="http://www.w3.org/2000/svg" p-id="4733" xmlns:xlink="http://www.w3.org/1999/xlink" width="200" height="200"><defs><style type="text/css"></style></defs><path d="M497.28 487.794a8 8 0 0 1 11.24 1.29l90.566 114.04a8 8 0 0 1-6.265 12.975h-63.57v246.663a8 8 0 0 1-8 8H483.06a8 8 0 0 1-8-8V616h-63.354a8 8 0 0 1-6.263-12.977l90.55-113.941a8 8 0 0 1 1.287-1.287z m13.933-317.127c65.34 0 128.046 19.545 181.328 56.522 52.112 36.162 91.554 86.224 114.057 144.77l2.149 5.593 5.862 1.526c84.434 22.014 143.404 97.688 143.404 184.02 0 104.985-86.546 190.399-192.928 190.399h-29.47a8 8 0 0 1-8-8v-37.513a8 8 0 0 1 8-8h29.47c37.027 0 71.848-14.234 98.047-40.073 26.202-25.845 40.63-60.225 40.63-96.813 0-61.923-42.372-116.427-103.094-132.562l-32.845-8.57-11.99-31.28a254.823 254.823 0 0 0-38.29-67.074 261.954 261.954 0 0 0-56.176-52.766c-44.11-30.595-96.034-46.765-150.154-46.765-54.125 0-106.046 16.17-150.183 46.78-21.542 15.027-40.44 32.781-56.142 52.736-16.198 20.426-29.087 43.004-38.295 67.081l-12.078 31.363-32.972 8.498c-29.011 7.593-55.275 24.714-73.967 48.23-18.174 22.987-28.313 50.507-29.318 79.608-1.24 37.634 12.633 73.145 39.067 99.996 26.42 26.834 61.792 41.611 99.604 41.611h29.47a8 8 0 0 1 8 8v37.513a8 8 0 0 1-8 8h-29.47C150.547 753.497 64 668.083 64 563.098c0-86.48 59.13-162.19 143.793-184.116l5.877-1.523 2.155-5.6c22.5-58.536 61.936-108.578 114.054-144.72 53.274-36.945 115.976-56.472 181.334-56.472z" p-id="4734" fill="#409EEF"></path></svg>